<?xml version="1.0" standalone="no"?><!DOCTYPE svg PUBLIC "-//W3C//DTD SVG 1.1//EN" "http://www.w3.org/Graphics/SVG/1.1/DTD/svg11.dtd"><svg t="1656469860474" class="icon" viewBox="0 0 1024 1024" version="1.1" xmlns="http://www.w3.org/2000/svg" p-id="3940" xmlns:xlink="http://www.w3.org/1999/xlink" width="200" height="200"><defs><style type="text/css">@font-face { font-family: feedback-iconfont; src: url("//at.alicdn.com/t/font_1031158_u69w8yhxdu.woff2?t=1630033759944") format("woff2"), url("//at.alicdn.com/t/font_1031158_u69w8yhxdu.woff?t=1630033759944") format("woff"), url("//at.alicdn.com/t/font_1031158_u69w8yhxdu.ttf?t=1630033759944") format("truetype"); }
</style></defs><path d="M106.666667 213.333333h810.666666v42.666667H106.666667z"  p-id="3941"></path><path d="M640 128v42.666667h42.666667V128c0-23.573333-19.093333-42.666667-42.538667-42.666667H383.872A42.496 42.496 0 0 0 341.333333 128v42.666667h42.666667V128h256z"  p-id="3942"></path><path d="M213.333333 896V256H170.666667v639.957333C170.666667 919.552 189.653333 938.666667 213.376 938.666667h597.248C834.218667 938.666667 853.333333 919.68 853.333333 895.957333V256h-42.666666v640H213.333333z"  p-id="3943"></path><path d="M320 341.333333h42.666667v384h-42.666667zM490.666667 341.333333h42.666666v384h-42.666666zM661.333333 341.333333h42.666667v384h-42.666667z"  p-id="3944"></path></svg>