<?xml version="1.0" standalone="no"?><!DOCTYPE svg PUBLIC "-//W3C//DTD SVG 1.1//EN" "http://www.w3.org/Graphics/SVG/1.1/DTD/svg11.dtd"><svg t="1656482036298" class="icon" viewBox="0 0 1024 1024" version="1.1" xmlns="http://www.w3.org/2000/svg" p-id="2819" xmlns:xlink="http://www.w3.org/1999/xlink" width="200" height="200"><defs><style type="text/css">@font-face { font-family: feedback-iconfont; src: url("//at.alicdn.com/t/font_1031158_u69w8yhxdu.woff2?t=1630033759944") format("woff2"), url("//at.alicdn.com/t/font_1031158_u69w8yhxdu.woff?t=1630033759944") format("woff"), url("//at.alicdn.com/t/font_1031158_u69w8yhxdu.ttf?t=1630033759944") format("truetype"); }
</style></defs><path d="M704 864H192c-89.6 0-160-70.4-160-160V192c0-89.6 70.4-160 160-160h512c89.6 0 160 70.4 160 160v512c0 89.6-70.4 160-160 160zM192 96c-51.2 0-96 44.8-96 96v512c0 51.2 44.8 96 96 96h512c51.2 0 96-44.8 96-96V192c0-51.2-44.8-96-96-96H192z" p-id="2820"></path><path d="M832 992H320c-19.2 0-32-12.8-32-32s12.8-32 32-32h512c51.2 0 96-44.8 96-96V320c0-19.2 12.8-32 32-32s32 12.8 32 32v512c0 89.6-70.4 160-160 160z" p-id="2821"></path></svg>