<?xml version="1.0" standalone="no"?><!DOCTYPE svg PUBLIC "-//W3C//DTD SVG 1.1//EN" "http://www.w3.org/Graphics/SVG/1.1/DTD/svg11.dtd"><svg t="1656482134035" class="icon" viewBox="0 0 1024 1024" version="1.1" xmlns="http://www.w3.org/2000/svg" p-id="6049" xmlns:xlink="http://www.w3.org/1999/xlink" width="200" height="200"><defs><style type="text/css">@font-face { font-family: feedback-iconfont; src: url("//at.alicdn.com/t/font_1031158_u69w8yhxdu.woff2?t=1630033759944") format("woff2"), url("//at.alicdn.com/t/font_1031158_u69w8yhxdu.woff?t=1630033759944") format("woff"), url("//at.alicdn.com/t/font_1031158_u69w8yhxdu.ttf?t=1630033759944") format("truetype"); }
</style></defs><path d="M864.3 925.9H158.9c-34.3 0-62.2-27.9-62.2-62.2V158.1c0-34.3 27.9-62.2 62.2-62.2h705.4c34.3 0 62.2 27.9 62.2 62.2v705.5c0.1 34.3-27.9 62.3-62.2 62.3zM158.9 137.4c-11.4 0-20.7 9.3-20.7 20.7v705.5c0 11.4 9.3 20.7 20.7 20.7h705.4c11.4 0 20.7-9.3 20.7-20.7V158.1c0-11.4-9.3-20.7-20.7-20.7H158.9z" p-id="6050"></path><path d="M758.8 377.6H264.3c-11.5 0-20.7-9.3-20.7-20.7s9.3-20.7 20.7-20.7h494.5c11.5 0 20.7 9.3 20.7 20.7s-9.2 20.7-20.7 20.7zM758.8 540.4H264.3c-11.5 0-20.7-9.3-20.7-20.7s9.3-20.7 20.7-20.7h494.5c11.5 0 20.7 9.3 20.7 20.7s-9.2 20.7-20.7 20.7zM758.8 685.6H264.3c-11.5 0-20.7-9.3-20.7-20.7s9.3-20.7 20.7-20.7h494.5c11.5 0 20.7 9.3 20.7 20.7s-9.2 20.7-20.7 20.7z"  p-id="6051"></path></svg>